<mxfile host="Electron" modified="2025-04-24T07:20:59.732Z" agent="Mozilla/5.0 (Windows NT 10.0; Win64; x64) AppleWebKit/537.36 (KHTML, like Gecko) draw.io/22.1.2 Chrome/114.0.5735.289 Electron/25.9.4 Safari/537.36" etag="m_wF8mYwI2t36caNzMfy" version="22.1.2" type="device">
  <diagram id="prtHgNgQTEPvFCAcTncT" name="Page-1">
    <mxGraphModel dx="1658" dy="820" grid="1" gridSize="10" guides="1" tooltips="1" connect="1" arrows="1" fold="1" page="1" pageScale="1" pageWidth="827" pageHeight="1169" math="0" shadow="0">
      <root>
        <mxCell id="0" />
        <mxCell id="1" parent="0" />
        <mxCell id="dNxyNK7c78bLwvsdeMH5-11" value="Heb ik mee te maken" style="swimlane;html=1;startSize=20;horizontal=1;containerType=tree;glass=0;rotation=0;" parent="1" vertex="1">
          <mxGeometry y="210" width="810" height="670" as="geometry" />
        </mxCell>
        <UserObject label="DHR. Hans Schaap" name="Tessa Miller" position="CFO" location="Office 1" email="me@example.com" placeholders="1" id="dNxyNK7c78bLwvsdeMH5-12">
          <mxCell style="label;128.png;whiteSpace=wrap;html=1;rounded=0;glass=0;treeFolding=1;treeMoving=1;rotation=0;" parent="dNxyNK7c78bLwvsdeMH5-11" vertex="1">
            <mxGeometry x="360" y="40" width="180" height="70" as="geometry" />
          </mxCell>
        </UserObject>
        <mxCell id="Fmy6KqY2RI3wJajZMgYS-25" style="edgeStyle=orthogonalEdgeStyle;rounded=0;orthogonalLoop=1;jettySize=auto;html=1;entryX=0.5;entryY=0;entryDx=0;entryDy=0;fontFamily=Helvetica;fontSize=12;fontColor=default;startSize=20;" parent="dNxyNK7c78bLwvsdeMH5-11" source="dNxyNK7c78bLwvsdeMH5-16" target="Fmy6KqY2RI3wJajZMgYS-8" edge="1">
          <mxGeometry relative="1" as="geometry">
            <Array as="points">
              <mxPoint x="220" y="380" />
              <mxPoint x="120" y="380" />
            </Array>
          </mxGeometry>
        </mxCell>
        <mxCell id="Fmy6KqY2RI3wJajZMgYS-26" style="edgeStyle=orthogonalEdgeStyle;rounded=0;orthogonalLoop=1;jettySize=auto;html=1;entryX=0.5;entryY=0;entryDx=0;entryDy=0;fontFamily=Helvetica;fontSize=12;fontColor=default;startSize=20;" parent="dNxyNK7c78bLwvsdeMH5-11" source="dNxyNK7c78bLwvsdeMH5-16" target="Fmy6KqY2RI3wJajZMgYS-6" edge="1">
          <mxGeometry relative="1" as="geometry">
            <Array as="points">
              <mxPoint x="220" y="380" />
              <mxPoint x="340" y="380" />
            </Array>
          </mxGeometry>
        </mxCell>
        <mxCell id="Fmy6KqY2RI3wJajZMgYS-37" style="edgeStyle=orthogonalEdgeStyle;rounded=0;orthogonalLoop=1;jettySize=auto;html=1;entryX=0;entryY=0.5;entryDx=0;entryDy=0;fontFamily=Helvetica;fontSize=12;fontColor=default;startSize=20;" parent="dNxyNK7c78bLwvsdeMH5-11" source="dNxyNK7c78bLwvsdeMH5-16" target="Fmy6KqY2RI3wJajZMgYS-36" edge="1">
          <mxGeometry relative="1" as="geometry">
            <Array as="points" />
          </mxGeometry>
        </mxCell>
        <mxCell id="Fmy6KqY2RI3wJajZMgYS-47" style="edgeStyle=orthogonalEdgeStyle;rounded=0;orthogonalLoop=1;jettySize=auto;html=1;fontFamily=Helvetica;fontSize=12;fontColor=default;startSize=20;entryX=0;entryY=0.5;entryDx=0;entryDy=0;" parent="dNxyNK7c78bLwvsdeMH5-11" source="dNxyNK7c78bLwvsdeMH5-16" target="Fmy6KqY2RI3wJajZMgYS-48" edge="1">
          <mxGeometry relative="1" as="geometry">
            <mxPoint x="480" y="400" as="targetPoint" />
            <Array as="points">
              <mxPoint x="390" y="300" />
              <mxPoint x="390" y="400" />
            </Array>
          </mxGeometry>
        </mxCell>
        <UserObject label="Dation Beheer B.V." name="Evan Valet" position="HR Director" location="Office 4" email="me@example.com" placeholders="1" id="dNxyNK7c78bLwvsdeMH5-16">
          <mxCell style="label;128.png;whiteSpace=wrap;html=1;rounded=0;glass=0;treeFolding=1;treeMoving=1;rotation=0;" parent="dNxyNK7c78bLwvsdeMH5-11" vertex="1">
            <mxGeometry x="130" y="260" width="180" height="80" as="geometry" />
          </mxCell>
        </UserObject>
        <UserObject label="Dation B.V." name="Evan Valet" position="HR Director" location="Office 4" email="me@example.com" placeholders="1" id="Fmy6KqY2RI3wJajZMgYS-6">
          <mxCell style="label;128.png;whiteSpace=wrap;html=1;rounded=0;glass=0;treeFolding=1;treeMoving=1;rotation=0;" parent="dNxyNK7c78bLwvsdeMH5-11" vertex="1">
            <mxGeometry x="250" y="410" width="180" height="80" as="geometry" />
          </mxCell>
        </UserObject>
        <UserObject label="ISV Software B.V." name="Evan Valet" position="HR Director" location="Office 4" email="me@example.com" placeholders="1" id="Fmy6KqY2RI3wJajZMgYS-8">
          <mxCell style="label;128.png;whiteSpace=wrap;html=1;rounded=0;glass=0;treeFolding=1;treeMoving=1;rotation=0;" parent="dNxyNK7c78bLwvsdeMH5-11" vertex="1">
            <mxGeometry x="30" y="410" width="180" height="80" as="geometry" />
          </mxCell>
        </UserObject>
        <mxCell id="Fmy6KqY2RI3wJajZMgYS-13" value="" style="edgeStyle=orthogonalEdgeStyle;rounded=0;orthogonalLoop=1;jettySize=auto;html=1;" parent="dNxyNK7c78bLwvsdeMH5-11" source="dNxyNK7c78bLwvsdeMH5-12" target="Fmy6KqY2RI3wJajZMgYS-14" edge="1">
          <mxGeometry relative="1" as="geometry" />
        </mxCell>
        <UserObject label="Curious-Inc Holding B.V." name="Tessa Miller" position="CFO" location="Office 1" email="me@example.com" placeholders="1" id="Fmy6KqY2RI3wJajZMgYS-14">
          <mxCell style="label;128.png;whiteSpace=wrap;html=1;rounded=0;glass=0;treeFolding=1;treeMoving=1;rotation=0;" parent="dNxyNK7c78bLwvsdeMH5-11" vertex="1">
            <mxGeometry x="360" y="140" width="180" height="70" as="geometry" />
          </mxCell>
        </UserObject>
        <mxCell id="Fmy6KqY2RI3wJajZMgYS-27" style="edgeStyle=orthogonalEdgeStyle;rounded=0;orthogonalLoop=1;jettySize=auto;html=1;fontFamily=Helvetica;fontSize=12;fontColor=default;startSize=20;exitX=0.5;exitY=1;exitDx=0;exitDy=0;entryX=0.5;entryY=0;entryDx=0;entryDy=0;" parent="dNxyNK7c78bLwvsdeMH5-11" source="Fmy6KqY2RI3wJajZMgYS-14" target="dNxyNK7c78bLwvsdeMH5-16" edge="1">
          <mxGeometry relative="1" as="geometry">
            <mxPoint x="160" y="190" as="targetPoint" />
            <Array as="points">
              <mxPoint x="450" y="230" />
              <mxPoint x="220" y="230" />
            </Array>
          </mxGeometry>
        </mxCell>
        <mxCell id="Fmy6KqY2RI3wJajZMgYS-31" value="" style="edgeStyle=orthogonalEdgeStyle;rounded=0;orthogonalLoop=1;jettySize=auto;html=1;exitX=1;exitY=0.5;exitDx=0;exitDy=0;entryX=0;entryY=0.5;entryDx=0;entryDy=0;" parent="dNxyNK7c78bLwvsdeMH5-11" source="Fmy6KqY2RI3wJajZMgYS-14" target="Fmy6KqY2RI3wJajZMgYS-32" edge="1">
          <mxGeometry relative="1" as="geometry">
            <mxPoint x="480" y="320" as="sourcePoint" />
            <mxPoint x="560" y="410" as="targetPoint" />
            <Array as="points" />
          </mxGeometry>
        </mxCell>
        <UserObject label="Personeel:&lt;br&gt;Erik: finansiÃ«n, Papierwerk en HR taken" name="Tessa Miller" position="CFO" location="Office 1" email="me@example.com" placeholders="1" id="Fmy6KqY2RI3wJajZMgYS-32">
          <mxCell style="label;128.png;whiteSpace=wrap;html=1;rounded=0;glass=0;treeFolding=1;treeMoving=1;rotation=0;" parent="dNxyNK7c78bLwvsdeMH5-11" vertex="1">
            <mxGeometry x="590" y="140" width="200" height="70" as="geometry" />
          </mxCell>
        </UserObject>
        <mxCell id="Fmy6KqY2RI3wJajZMgYS-49" style="edgeStyle=orthogonalEdgeStyle;rounded=0;orthogonalLoop=1;jettySize=auto;html=1;entryX=0.5;entryY=0;entryDx=0;entryDy=0;fontFamily=Helvetica;fontSize=12;fontColor=default;startSize=20;" parent="dNxyNK7c78bLwvsdeMH5-11" source="Fmy6KqY2RI3wJajZMgYS-36" target="Fmy6KqY2RI3wJajZMgYS-48" edge="1">
          <mxGeometry relative="1" as="geometry" />
        </mxCell>
        <UserObject label="Service Desk:&lt;br&gt;Arjan,&lt;br&gt;Nienke,&lt;br&gt;Cris" name="Evan Valet" position="HR Director" location="Office 4" email="me@example.com" placeholders="1" id="Fmy6KqY2RI3wJajZMgYS-36">
          <mxCell style="label;128.png;whiteSpace=wrap;html=1;rounded=0;glass=0;treeFolding=1;treeMoving=1;rotation=0;" parent="dNxyNK7c78bLwvsdeMH5-11" vertex="1">
            <mxGeometry x="450" y="260" width="180" height="80" as="geometry" />
          </mxCell>
        </UserObject>
        <UserObject label="Developers:&lt;br&gt;Florian&lt;br&gt;Sander&lt;br&gt;Ik" name="Evan Valet" position="HR Director" location="Office 4" email="me@example.com" placeholders="1" id="Fmy6KqY2RI3wJajZMgYS-48">
          <mxCell style="label;128.png;whiteSpace=wrap;html=1;rounded=0;glass=0;treeFolding=1;treeMoving=1;rotation=0;" parent="dNxyNK7c78bLwvsdeMH5-11" vertex="1">
            <mxGeometry x="450" y="360" width="180" height="80" as="geometry" />
          </mxCell>
        </UserObject>
      </root>
    </mxGraphModel>
  </diagram>
</mxfile>
